<?xml version="1.0" encoding="UTF-8" standalone="no"?>
<svg
   xmlns:dc="http://purl.org/dc/elements/1.1/"
   xmlns:cc="http://creativecommons.org/ns#"
   xmlns:rdf="http://www.w3.org/1999/02/22-rdf-syntax-ns#"
   xmlns:svg="http://www.w3.org/2000/svg"
   xmlns="http://www.w3.org/2000/svg"
   width="206mm"
   height="206mm"
   viewBox="0 0 206 206"
   version="1.1"
   id="statistics">
  <path
     transform="scale(0.26458332)"
     d="M 379.59375 6.8652344 C 170.09455 6.8651663 0.0019153297 176.95783 0.001953125 386.45703 C 0.0028602116 595.95561 170.09523 766.0489 379.59375 766.04883 C 464.98936 766.04847 543.83531 737.7836 607.28516 690.11133 L 687.45703 770.2832 A 28.349291 28.349291 0 0 0 727.54492 770.2832 L 769.01953 728.80664 A 28.349291 28.349291 0 0 0 769.01953 688.71875 L 687.99219 607.68945 C 732.78802 545.38303 759.1852 468.97885 759.18555 386.45703 C 759.18558 176.9585 589.09233 6.8661301 379.59375 6.8652344 z M 379.59375 71.353516 C 553.76414 71.353629 694.69802 212.28669 694.69727 386.45703 C 694.69715 560.62681 553.76353 701.56043 379.59375 701.56055 C 205.42342 701.56134 64.498122 560.62742 64.498047 386.45703 C 64.497291 212.28606 205.42282 71.352752 379.59375 71.353516 z M 492.60742 230.69141 A 28.349291 28.349291 0 0 0 464.26172 259.03711 L 464.26172 522.50586 A 28.349291 28.349291 0 0 0 492.60742 550.85156 L 551.33203 550.85156 A 28.349291 28.349291 0 0 0 579.67773 522.50586 L 579.67773 259.03711 A 28.349291 28.349291 0 0 0 551.33203 230.69141 L 492.60742 230.69141 z M 341.19141 316.01172 A 28.349291 28.349291 0 0 0 312.84375 344.35742 L 312.84375 532.48438 A 28.349291 28.349291 0 0 0 341.19141 560.83203 L 399.89258 560.83203 A 28.349291 28.349291 0 0 0 428.23828 532.48438 L 428.23828 344.35742 A 28.349291 28.349291 0 0 0 399.89258 316.01172 L 341.19141 316.01172 z M 189.78125 390.08789 A 28.349291 28.349291 0 0 0 161.43359 418.43555 L 161.43359 541.22461 A 28.349291 28.349291 0 0 0 189.78125 569.57227 L 248.44531 569.57227 A 28.349291 28.349291 0 0 0 276.79102 541.22461 L 276.79102 418.43555 A 28.349291 28.349291 0 0 0 248.44531 390.08789 L 189.78125 390.08789 z "
     style="color:#000000;shape-padding:0;clip-rule:nonzero;display:inline;overflow:visible;visibility:visible;opacity:1;isolation:auto;mix-blend-mode:normal;color-interpolation:sRGB;color-interpolation-filters:linearRGB;solid-color:#000000;solid-opacity:1;vector-effect:none;fill:#000000;fill-opacity:1;fill-rule:nonzero;stroke:none;stroke-width:56.69291687;stroke-linecap:round;stroke-linejoin:round;stroke-miterlimit:4;stroke-dasharray:none;stroke-dashoffset:0;stroke-opacity:1;color-rendering:auto;image-rendering:auto;shape-rendering:auto;text-rendering:auto;enable-background:accumulate" />
</svg>
